<svg xmlns="http://www.w3.org/2000/svg" width="72" height="72" id="github">
    <g fill="none" fill-rule="evenodd">
        <rect width="72" height="72" fill="#FFF" rx="4"></rect>
        <path fill="#2196F3"
            d="M4 0C1.79 0 0 1.798 0 4v64c0 2.21 1.785 4 4 4h20c2 0 3.079-2.84 3.079-3.788 0-.856-.033-3.683-.049-6.681-10.015 2.17-12.129-4.234-12.129-4.234-1.637-4.148-3.997-5.251-3.997-5.251-3.266-2.227.246-2.182.246-2.182 3.615.253 5.519 3.698 5.519 3.698 3.21 5.487 8.422 3.9 10.476 2.984.323-2.32 1.256-3.903 2.286-4.8-7.996-.907-16.402-3.984-16.402-17.734 0-3.918 1.406-7.12 3.71-9.633-.375-.903-1.607-4.553.348-9.496 0 0 3.023-.965 9.902 3.678 2.872-.795 5.952-1.194 9.011-1.207 3.06.013 6.142.412 9.019 1.207 6.871-4.643 9.89-3.678 9.89-3.678 1.96 4.943.727 8.593.353 9.496 2.308 2.514 3.705 5.715 3.705 9.633 0 13.783-8.422 16.818-16.438 17.706 1.291 1.114 2.442 3.298 2.442 6.646 0 4.802-.042 8.666-.042 9.848 0 .955 0 3.788 3.071 3.788h19.998A4.005 4.005 0 0 0 72 68V4c0-2.21-1.798-4-4-4H4zm9.635 51.525c-.08.178-.36.231-.617.109-.261-.117-.408-.36-.323-.539.078-.184.36-.235.62-.112.262.117.41.363.32.542zm1.458 1.62c-.171.16-.507.086-.735-.165-.235-.25-.28-.585-.105-.746.177-.159.502-.084.738.166.236.253.282.585.102.746zm1.42 2.068c-.22.152-.581.01-.804-.31-.221-.32-.221-.702.004-.855.224-.153.58-.016.805.301.22.325.22.707-.005.864zm1.944 1.996c-.197.217-.617.159-.925-.137-.315-.29-.402-.7-.204-.917.2-.217.622-.156.932.137.312.29.408.703.197.917zm2.683 1.16c-.087.28-.492.409-.9.29-.407-.124-.673-.453-.59-.737.084-.283.49-.416.901-.288.407.122.674.449.59.735zm2.946.215c.01.296-.335.541-.763.547-.43.009-.779-.23-.784-.522 0-.299.338-.542.769-.549.428-.008.778.23.778.524zm2.742-.465c.051.288-.246.585-.671.664-.418.076-.805-.102-.858-.389-.052-.296.25-.592.668-.669.426-.074.807.1.86.394z">
        </path>
    </g>
</svg>